# xmcd
#
# Track frame offsets:
#	150
#	13397
#	25160
#	38242
#	49375
#	61962
#	74447
#	87405
#	101340
#	112920
#	127540
#	139185
#	153457
#	163932
#
# Disc length: 2335 seconds
#
# Revision: 3
# Processed by: cddbd v1.5.2PL0 Copyright (c) Steve Scherf et al.
# Submitted via: audiograbber 1.83.01
#
DISCID=bb091d0e
DTITLE=Heinz Rühmann - Ein Freund, Ein Guter Freund (Koregiert!)
DYEAR=1992
DGENRE=Schlager
TTITLE0=Jawohl, meine Herr'n
TTITLE1=So ein Regenwurm hat's gut
TTITLE2=Die Ballade vom semmelblonden Emil
TTITLE3=Ich brech' die Herzen der stolzesten Frau'n
TTITLE4=LI-Li-Li-Liebe
TTITLE5=Wozu ist die Straße da?
TTITLE6=Das kann doch einen Seemann nicht erschüttern
TTITLE7=Wanderlied (Denn ein Schneider der muß wandern)
TTITLE8=Mir geht's gut
TTITLE9=Ich bin so leidenschaftlich
TTITLE10=Das mach ich alles nur mit einem netten Lächeln
TTITLE11=Was sind wir Männer doch für ein lustiger Verein
TTITLE12=Wenn der Vater mit dem Sohne
TTITLE13=Ein Freund, ein guter Freund
EXTD=
EXTT0=
EXTT1=
EXTT2=
EXTT3=
EXTT4=
EXTT5=
EXTT6=
EXTT7=
EXTT8=
EXTT9=
EXTT10=
EXTT11=
EXTT12=
EXTT13=
PLAYORDER=
